<svg version="1.0" xmlns="http://www.w3.org/2000/svg"
 width="50pt" height="50pt" viewBox="0 0 370.000000 295.000000"
 preserveAspectRatio="xMidYMid meet">
    <g transform="translate(0.000000,295.000000) scale(0.100000,-0.100000)"
    fill="green" stroke="none">
        <path d="M3130 2798 c0 -85 -17 -280 -36 -408 -15 -103 -63 -324 -69 -318 -2
        2 -6 44 -10 93 -14 187 -69 492 -96 535 -11 16 -10 9 17 -190 24 -172 14 -462
        -21 -630 -14 -68 -27 -125 -28 -127 -2 -1 -1 69 1 156 4 140 -9 336 -25 377
        -14 36 -23 6 -23 -78 -1 -125 -15 -274 -42 -443 -25 -157 -21 -162 -48 65 -7
        58 -26 159 -41 225 -35 143 -37 148 -47 141 -4 -3 0 -69 10 -148 18 -142 25
        -442 12 -516 -8 -50 -35 -144 -39 -140 -2 2 1 39 7 82 13 90 0 238 -28 321
        -21 61 -30 44 -14 -27 11 -55 24 -251 15 -233 -7 14 -63 215 -81 290 -22 92
        -28 322 -12 443 8 56 11 102 7 102 -14 0 -39 -94 -55 -204 -21 -143 -14 -369
        15 -505 38 -172 23 -357 -39 -499 -23 -52 -81 -145 -86 -139 -2 2 5 44 17 93
        23 100 39 388 22 405 -6 6 -12 -28 -16 -98 -11 -194 -60 -366 -149 -521 -16
        -29 -32 -52 -34 -50 -1 2 10 46 27 98 16 52 28 106 26 120 -2 18 -10 4 -26
        -50 -32 -100 -83 -201 -128 -251 -20 -22 -38 -38 -40 -35 -2 2 9 30 25 62 82
        163 131 358 139 549 6 141 -2 295 -16 295 -4 0 -7 -66 -7 -147 -1 -166 -17
        -272 -65 -422 -28 -87 -96 -238 -103 -230 -2 2 5 44 15 93 33 164 48 542 19
        509 -11 -13 -28 -111 -40 -231 -19 -201 -95 -438 -170 -532 -16 -20 -15 -14 5
        28 91 183 105 348 49 567 -41 164 -66 342 -55 395 6 25 13 65 17 90 11 75 73
        270 115 359 39 83 46 111 31 111 -11 0 -65 -92 -106 -180 -66 -145 -104 -311
        -106 -465 -2 -128 0 -159 20 -295 34 -228 23 -365 -36 -483 -32 -63 -104 -170
        -110 -164 -3 2 0 24 5 48 19 82 12 312 -15 529 -15 113 -29 261 -32 330 -7
        173 -20 117 -21 -94 -1 -114 4 -203 16 -275 9 -58 17 -162 17 -231 0 -181 -28
        -278 -105 -362 l-39 -43 8 45 c9 58 9 287 -1 323 -14 50 -24 19 -15 -45 11
        -79 -5 -200 -37 -282 l-24 -61 0 77 c-1 95 -16 110 -24 23 -7 -76 -39 -145
        -66 -145 -14 0 -18 5 -14 20 7 28 0 25 -40 -15 -53 -53 -70 -47 -41 14 38 78
        54 158 54 264 0 73 -3 98 -12 95 -8 -3 -11 -20 -10 -44 6 -83 -26 -241 -57
        -282 -15 -20 -16 -5 -15 241 l1 262 -19 -55 c-15 -41 -22 -100 -28 -225 -9
        -172 -26 -261 -55 -285 -13 -11 -15 -3 -15 61 -1 85 -20 201 -35 206 -6 2 -10
        -49 -10 -139 0 -171 -9 -203 -64 -217 -20 -5 -110 -15 -201 -21 -289 -20 -485
        -56 -644 -117 -74 -29 -93 -52 -82 -98 11 -44 41 -49 147 -25 436 99 956 164
        1044 130 22 -8 30 -7 39 5 10 14 18 10 61 -34 28 -28 54 -51 59 -51 9 0 4 31
        -10 64 -7 18 -4 18 26 -4 19 -13 61 -48 93 -77 56 -50 87 -65 87 -43 0 5 -43
        53 -95 105 -52 53 -95 98 -95 101 0 2 11 4 24 4 13 0 53 -23 91 -52 112 -87
        128 -98 185 -119 63 -24 171 -31 177 -12 3 7 -8 15 -24 19 -61 15 -143 69 -97
        64 89 -10 100 21 14 38 -58 12 -138 61 -148 90 -6 20 15 14 135 -38 177 -77
        191 -67 46 35 -149 106 -93 96 96 -18 167 -100 274 -117 404 -65 42 16 24 23
        -66 23 -68 0 -92 5 -137 26 -50 24 -228 147 -229 159 -1 3 20 17 47 32 l47 26
        52 -47 c48 -45 110 -70 135 -55 13 8 9 24 -7 24 -16 0 -81 54 -95 80 -8 15 1
        15 93 -6 100 -23 217 -32 217 -16 0 4 -30 16 -67 26 -38 9 -90 28 -118 40
        l-50 23 30 13 c46 18 156 27 226 18 160 -21 211 -21 272 2 77 29 79 54 1 28
        -68 -23 -108 -17 -238 37 -47 19 -101 35 -120 35 -43 0 -45 8 -8 43 27 26 30
        27 88 16 159 -30 377 19 479 106 30 26 30 26 5 21 -14 -3 -59 -15 -100 -26
        -92 -25 -204 -35 -293 -26 -82 9 -79 26 4 26 71 0 198 25 254 49 22 10 81 49
        130 86 109 82 110 83 103 90 -3 3 -33 -10 -66 -30 -92 -53 -185 -93 -239 -100
        -44 -7 -37 -2 85 61 139 70 211 125 263 200 37 54 24 58 -18 6 -49 -61 -138
        -101 -313 -143 l-34 -8 49 42 c73 61 109 101 96 105 -7 2 -35 -18 -64 -45 -55
        -52 -107 -87 -90 -61 40 65 71 100 106 124 23 15 63 44 88 65 59 49 123 78
        171 79 42 0 68 8 68 21 0 5 -28 9 -62 9 l-62 0 61 38 c76 46 140 98 132 106
        -4 4 -41 -12 -83 -35 -42 -23 -79 -39 -83 -36 -4 5 109 93 256 202 55 40 91
        74 91 85 0 8 -12 4 -32 -8 -165 -100 -225 -134 -300 -174 -49 -26 -88 -43 -88
        -39 0 11 81 86 163 150 37 30 66 56 63 58 -3 3 -32 -11 -64 -31 -33 -20 -63
        -36 -66 -36 -16 0 127 149 217 226 54 46 94 84 89 84 -5 0 -74 -45 -155 -99
        -81 -55 -147 -96 -147 -92 0 5 6 23 13 40 10 23 28 39 64 56 95 43 171 136
        193 233 11 47 -2 39 -24 -15 -25 -61 -77 -117 -141 -154 -58 -33 -65 -35 -65
        -13 0 8 5 12 11 8 26 -15 128 124 184 250 39 89 92 296 70 274 -3 -3 -12 -31
        -20 -62 -25 -94 -71 -191 -136 -287 -67 -98 -86 -117 -75 -76 44 176 79 609
        60 730 -10 58 -24 44 -24 -25z"/>
        <path d="M2039 1693 c-4 -32 6 -93 22 -136 l19 -52 -5 75 c-6 85 -13 120 -26
        120 -5 0 -9 -3 -10 -7z"/>
    </g>
</svg>
